<svg xmlns="http://www.w3.org/2000/svg" xmlns:xlink="http://www.w3.org/1999/xlink" width="40" zoomAndPan="magnify" viewBox="0 0 30 30.000001" height="40" preserveAspectRatio="xMidYMid meet" version="1.0">
  <defs>
    <filter x="0%" y="0%" width="100%" height="100%" id="dc09350246">
      <feColorMatrix values="0 0 0 0 1 0 0 0 0 1 0 0 0 0 1 0 0 0 1 0" color-interpolation-filters="sRGB"/>
    </filter>
    <clipPath id="a43b1c0b82">
      <path d="M 0.484375 0 L 29.515625 0 L 29.515625 29.03125 L 0.484375 29.03125 Z M 0.484375 0 " clip-rule="nonzero"/>
    </clipPath>
    <clipPath id="9090640fcc">
      <path d="M 0.484375 25 L 15 25 L 15 29.03125 L 0.484375 29.03125 Z M 0.484375 25 " clip-rule="nonzero"/>
    </clipPath>
    <clipPath id="24f873b338">
      <path d="M 7.636719 24.878906 L 14.996094 32.242188 L 6.3125 40.921875 L -1.046875 33.5625 Z M 7.636719 24.878906 " clip-rule="nonzero"/>
    </clipPath>
    <clipPath id="53abaf6fd7">
      <path d="M 8.261719 25.503906 L 14.371094 31.613281 C 14.714844 31.960938 14.714844 32.519531 14.371094 32.867188 L 6.953125 40.28125 C 6.609375 40.628906 6.046875 40.628906 5.703125 40.28125 L -0.40625 34.171875 C -0.753906 33.828125 -0.753906 33.265625 -0.40625 32.921875 L 7.011719 25.503906 C 7.355469 25.160156 7.914062 25.160156 8.261719 25.503906 Z M 8.261719 25.503906 " clip-rule="nonzero"/>
    </clipPath>
    <clipPath id="4a29b7f648">
      <path d="M 9 13 L 29.515625 13 L 29.515625 29.03125 L 9 29.03125 Z M 9 13 " clip-rule="nonzero"/>
    </clipPath>
    <mask id="f963da68a2">
      <g filter="url(#dc09350246)">
        <rect x="-3" width="36" fill="#000000" y="-3" height="36.000001" fill-opacity="0.3"/>
      </g>
    </mask>
    <clipPath id="e96450e9a8">
      <path d="M 0.308594 0.0078125 L 20.515625 0.0078125 L 20.515625 16.03125 L 0.308594 16.03125 Z M 0.308594 0.0078125 " clip-rule="nonzero"/>
    </clipPath>
    <clipPath id="100c84d7cf">
      <path d="M 17.09375 0.0078125 L 31.851562 14.769531 L 15.246094 31.375 L 0.488281 16.613281 Z M 17.09375 0.0078125 " clip-rule="nonzero"/>
    </clipPath>
    <clipPath id="e5db1c0e6a">
      <path d="M 17.71875 0.632812 L 31.226562 14.144531 C 31.574219 14.488281 31.574219 15.050781 31.226562 15.394531 L 15.914062 30.707031 C 15.566406 31.054688 15.007812 31.054688 14.664062 30.707031 L 1.152344 17.199219 C 0.808594 16.851562 0.808594 16.292969 1.152344 15.949219 L 16.46875 0.632812 C 16.8125 0.289062 17.371094 0.289062 17.71875 0.632812 Z M 17.71875 0.632812 " clip-rule="nonzero"/>
    </clipPath>
    <clipPath id="1dcf6d2392">
      <rect x="0" width="21" y="0" height="17"/>
    </clipPath>
    <clipPath id="2a83c3ecd8">
      <path d="M 0.484375 0 L 12 0 L 12 29.03125 L 0.484375 29.03125 Z M 0.484375 0 " clip-rule="nonzero"/>
    </clipPath>
    <mask id="52f9038fcc">
      <g filter="url(#dc09350246)">
        <rect x="-3" width="36" fill="#000000" y="-3" height="36.000001" fill-opacity="0.78"/>
      </g>
    </mask>
    <clipPath id="db7a164b06">
      <path d="M 0.484375 0 L 11.632812 0 L 11.632812 29.03125 L 0.484375 29.03125 Z M 0.484375 0 " clip-rule="nonzero"/>
    </clipPath>
    <clipPath id="4c40efbbb0">
      <path d="M -9.617188 -7.769531 L 11.480469 13.328125 L -5.203125 30.011719 L -26.300781 8.914062 Z M -9.617188 -7.769531 " clip-rule="nonzero"/>
    </clipPath>
    <clipPath id="b8d39ccd85">
      <path d="M -8.992188 -7.144531 L 10.855469 12.703125 C 11.023438 12.867188 11.117188 13.09375 11.117188 13.328125 C 11.117188 13.5625 11.023438 13.785156 10.855469 13.953125 L -4.554688 29.363281 C -4.722656 29.53125 -4.945312 29.625 -5.179688 29.625 C -5.414062 29.625 -5.640625 29.53125 -5.804688 29.363281 L -25.652344 9.519531 C -26 9.171875 -26 8.613281 -25.652344 8.269531 L -10.242188 -7.144531 C -9.894531 -7.488281 -9.335938 -7.488281 -8.992188 -7.144531 Z M -8.992188 -7.144531 " clip-rule="nonzero"/>
    </clipPath>
    <clipPath id="d8c075f81c">
      <rect x="0" width="12" y="0" height="30"/>
    </clipPath>
    <clipPath id="1079be54ee">
      <path d="M 0.484375 0 L 29.515625 0 L 29.515625 29 L 0.484375 29 Z M 0.484375 0 " clip-rule="nonzero"/>
    </clipPath>
  </defs>
  <g clip-path="url(#a43b1c0b82)">
    <path fill="#ffffff" d="M 0.484375 0 L 29.515625 0 L 29.515625 29.03125 L 0.484375 29.03125 Z M 0.484375 0 " fill-opacity="1" fill-rule="nonzero"/>
    <path fill="#ddb6e6" d="M 0.484375 0 L 29.515625 0 L 29.515625 29.03125 L 0.484375 29.03125 Z M 0.484375 0 " fill-opacity="1" fill-rule="nonzero"/>
  </g>
  <g clip-path="url(#9090640fcc)">
    <g clip-path="url(#24f873b338)">
      <g clip-path="url(#53abaf6fd7)">
        <path fill="#8c52ff" d="M 7.636719 24.878906 L 14.996094 32.242188 L 6.339844 40.894531 L -1.019531 33.535156 Z M 7.636719 24.878906 " fill-opacity="1" fill-rule="nonzero"/>
      </g>
    </g>
  </g>
  <g clip-path="url(#4a29b7f648)">
    <g mask="url(#f963da68a2)">
      <g transform="matrix(1, 0, 0, 1, 9, 13)">
        <g clip-path="url(#1dcf6d2392)">
          <g clip-path="url(#e96450e9a8)">
            <g clip-path="url(#100c84d7cf)">
              <g clip-path="url(#e5db1c0e6a)">
                <path fill="#8c52ff" d="M 17.09375 0.0078125 L 31.851562 14.769531 L 15.304688 31.316406 L 0.542969 16.554688 Z M 17.09375 0.0078125 " fill-opacity="1" fill-rule="nonzero"/>
              </g>
            </g>
          </g>
        </g>
      </g>
    </g>
  </g>
  <g clip-path="url(#2a83c3ecd8)">
    <g mask="url(#52f9038fcc)">
      <g transform="matrix(1, 0, 0, 1, 0, 0.000000000000005692)">
        <g clip-path="url(#d8c075f81c)">
          <g clip-path="url(#db7a164b06)">
            <g clip-path="url(#4c40efbbb0)">
              <g clip-path="url(#b8d39ccd85)">
                <path fill="#8c52ff" d="M -9.617188 -7.769531 L 11.480469 13.328125 L -5.203125 30.011719 L -26.300781 8.914062 Z M -9.617188 -7.769531 " fill-opacity="1" fill-rule="nonzero"/>
              </g>
            </g>
          </g>
        </g>
      </g>
    </g>
  </g>
  <g clip-path="url(#1079be54ee)">
    <path stroke-linecap="butt" transform="matrix(0.92191, 0, 0, 0.92191, 3.972498, -3.922078)" fill="none" stroke-linejoin="miter" d="M 2.974633 29.083847 L 3.546645 28.999105 L 4.665246 29.054187 L 5.292341 28.973682 L 6.20756 29.028765 L 7.008376 28.685557 L 7.351584 28.168628 L 7.262604 25.168744 L 7.351584 24.278947 L 7.326161 23.677275 L 7.381243 22.651891 L 7.326161 22.024797 L 7.326161 20.906196 L 7.576151 20.647731 L 7.864276 20.762133 L 8.321885 21.139237 L 8.665092 21.56295 L 9.838776 22.736634 L 10.207406 23.19848 L 10.9828 23.93574 L 11.584472 24.36369 L 12.211566 24.397587 L 12.783578 23.9654 L 13.181868 23.541687 L 13.525075 23.19848 L 14.325892 22.249364 L 14.724181 21.96124 L 15.897865 20.762133 L 16.274969 20.592648 L 16.499537 21.020598 L 16.444454 22.588334 L 16.529197 23.736595 L 16.469877 24.850959 L 16.529197 25.914478 L 16.469877 26.422933 L 16.529197 27.715256 L 16.529197 28.143205 L 16.758001 28.795723 L 17.359673 28.973682 L 20.821404 29.083847 L 21.423076 28.7703 L 21.766283 27.939823 L 21.681541 26.452592 L 21.736624 25.884818 L 21.681541 17.304639 L 21.736624 16.677545 L 21.706964 13.842908 L 21.736624 13.296319 L 21.681541 12.067552 L 21.706964 11.58452 L 21.681541 10.410836 L 21.736624 9.868484 L 21.393416 9.266813 L 20.791745 8.953265 L 19.961268 9.21173 L 19.363833 9.58036 L 18.16049 10.838786 L 17.79186 11.300633 L 17.448653 11.61418 L 17.046126 12.122635 L 14.529274 14.698807 L 14.160644 15.190314 L 12.414948 16.961432 L 11.898019 17.304639 L 11.296347 17.075834 L 10.957377 16.584328 L 10.550613 16.186038 L 10.042158 15.529284 L 9.410826 14.957272 L 6.809231 12.067552 L 6.410942 11.724345 L 5.660971 10.838786 L 5.203361 10.440496 L 4.461864 9.665102 L 3.80511 9.177833 L 3.004293 8.953265 L 2.372961 9.24139 L 2.059414 9.838825 L 2.144157 11.58452 L 2.059414 12.694647 L 2.114497 13.211576 L 2.089074 17.787671 L 2.144157 18.359683 L 2.059414 21.249403 L 2.114497 21.795992 L 2.089074 28.113546 L 2.402621 28.715217 Z M 2.974633 29.083847 " stroke="#000000" stroke-width="1.07265" stroke-opacity="1" stroke-miterlimit="4"/>
  </g>
</svg>
